<svg width="604" height="544" viewBox="0 0 604 544" fill="none" xmlns="http://www.w3.org/2000/svg">
<mask id="mask0_434_4048" style="mask-type:alpha" maskUnits="userSpaceOnUse" x="0" y="0" width="604" height="544">
<rect width="604" height="544" rx="4" fill="#2F2F2F"/>
</mask>
<g mask="url(#mask0_434_4048)">
<g opacity="0.6" filter="url(#filter0_f_434_4048)">
<ellipse cx="302" cy="272.5" rx="166" ry="154.5" fill="#4F4FFF"/>
</g>
</g>
<g clip-path="url(#clip0_434_4048)">
<path d="M257.269 373.017L251.436 365.878C249.683 363.982 248.711 361.497 248.712 358.918V152.007C248.712 149.286 249.795 146.677 251.723 144.754C253.65 142.83 256.265 141.75 258.991 141.75H526.005C527.488 141.749 528.953 142.07 530.299 142.69C531.645 143.31 532.84 144.214 533.802 145.34L539.764 152.648" fill="black"/>
<path d="M256.674 373.504L250.84 366.36C248.969 364.332 247.934 361.674 247.941 358.918V152.007C247.944 149.083 249.109 146.28 251.181 144.213C253.253 142.146 256.062 140.983 258.992 140.98H526.006C527.598 140.979 529.171 141.322 530.617 141.984C532.064 142.646 533.351 143.612 534.389 144.816L540.361 152.14L539.168 153.115L533.206 145.806C532.315 144.774 531.21 143.946 529.969 143.378C528.727 142.811 527.377 142.518 526.011 142.519H258.992C256.471 142.522 254.054 143.522 252.271 145.301C250.489 147.08 249.486 149.491 249.483 152.007V358.918C249.48 361.305 250.381 363.604 252.007 365.354L257.866 372.535L256.674 373.504Z" fill="#9079A7"/>
<path d="M260.117 141.162L258.921 142.133L263.736 148.036L264.932 147.064L260.117 141.162Z" fill="#9079A7"/>
<path d="M249.099 151.215L247.903 152.187L253.074 158.522L254.269 157.55L249.099 151.215Z" fill="#9079A7"/>
<path d="M530.955 147.919H264.167C258.49 147.919 253.888 152.512 253.888 158.177V365.688C253.888 371.353 258.49 375.945 264.167 375.945H530.955C536.632 375.945 541.234 371.353 541.234 365.688V158.177C541.234 152.512 536.632 147.919 530.955 147.919Z" fill="black"/>
<path d="M530.955 376.745H264.167C261.238 376.742 258.428 375.58 256.357 373.512C254.285 371.445 253.12 368.642 253.117 365.718V158.182C253.12 155.258 254.285 152.455 256.357 150.388C258.428 148.32 261.238 147.158 264.167 147.155H530.955C533.885 147.158 536.694 148.32 538.766 150.388C540.838 152.455 542.003 155.258 542.006 158.182V365.693C542.008 368.621 540.846 371.429 538.774 373.502C536.701 375.574 533.889 376.741 530.955 376.745ZM264.167 148.719C261.646 148.722 259.23 149.723 257.447 151.501C255.664 153.28 254.662 155.692 254.659 158.207V365.718C254.662 368.234 255.664 370.646 257.447 372.425C259.23 374.203 261.646 375.204 264.167 375.206H530.955C533.476 375.204 535.893 374.203 537.676 372.425C539.458 370.646 540.461 368.234 540.464 365.718V158.182C540.461 155.666 539.458 153.254 537.676 151.476C535.893 149.697 533.476 148.696 530.955 148.694L264.167 148.719Z" fill="#9079A7"/>
<path d="M275.762 169.942C274.101 169.967 272.499 169.332 271.306 168.178C270.114 167.024 269.43 165.445 269.404 163.788C269.431 162.131 270.116 160.552 271.308 159.398C272.5 158.245 274.102 157.61 275.762 157.633C277.422 157.611 279.023 158.246 280.215 159.4C281.406 160.553 282.091 162.131 282.12 163.788C282.093 165.444 281.408 167.023 280.216 168.177C279.024 169.33 277.422 169.965 275.762 169.942V169.942ZM275.762 159.172C274.511 159.148 273.301 159.621 272.398 160.487C271.495 161.352 270.973 162.539 270.946 163.788C270.972 165.037 271.494 166.225 272.397 167.09C273.3 167.956 274.51 168.428 275.762 168.403C277.014 168.427 278.223 167.954 279.126 167.089C280.029 166.223 280.551 165.036 280.578 163.788C280.548 162.54 280.025 161.355 279.123 160.491C278.22 159.627 277.012 159.155 275.762 159.177V159.172Z" fill="#9079A7"/>
<path d="M298.109 169.942C296.448 169.965 294.846 169.33 293.655 168.177C292.463 167.023 291.778 165.444 291.751 163.788C291.779 162.131 292.464 160.553 293.656 159.4C294.848 158.246 296.449 157.611 298.109 157.633C299.77 157.61 301.372 158.245 302.565 159.398C303.757 160.552 304.443 162.13 304.471 163.788C304.444 165.445 303.759 167.025 302.566 168.179C301.373 169.332 299.77 169.967 298.109 169.942V169.942ZM298.109 159.172C296.858 159.15 295.649 159.623 294.746 160.488C293.844 161.353 293.321 162.539 293.293 163.788C293.32 165.036 293.842 166.223 294.745 167.089C295.647 167.954 296.857 168.427 298.109 168.403C299.361 168.428 300.572 167.956 301.476 167.091C302.38 166.225 302.903 165.037 302.93 163.788C302.9 162.539 302.376 161.354 301.473 160.49C300.569 159.626 299.36 159.153 298.109 159.177V159.172Z" fill="#9079A7"/>
<path d="M320.461 169.942C318.801 169.965 317.199 169.33 316.007 168.177C314.815 167.023 314.131 165.444 314.104 163.788C314.132 162.131 314.817 160.553 316.009 159.4C317.2 158.246 318.801 157.611 320.461 157.633C322.122 157.61 323.724 158.245 324.915 159.398C326.107 160.552 326.792 162.131 326.819 163.788C326.793 165.445 326.109 167.024 324.917 168.178C323.725 169.332 322.122 169.967 320.461 169.942V169.942ZM320.461 159.172C319.21 159.15 318.001 159.623 317.099 160.488C316.196 161.353 315.674 162.539 315.645 163.788C315.672 165.036 316.195 166.223 317.097 167.089C318 167.954 319.21 168.427 320.461 168.403C321.713 168.428 322.924 167.956 323.827 167.09C324.73 166.225 325.251 165.037 325.277 163.788C325.249 162.54 324.726 161.354 323.823 160.49C322.921 159.626 321.712 159.153 320.461 159.177V159.172Z" fill="#9079A7"/>
<path d="M541.234 177.65H253.888V179.189H541.234V177.65Z" fill="#9079A7"/>
<path d="M381.15 212.705H300.227C297.956 212.705 296.115 214.542 296.115 216.808V273.895C296.115 276.161 297.956 277.998 300.227 277.998H381.15C383.421 277.998 385.262 276.161 385.262 273.895V216.808C385.262 214.542 383.421 212.705 381.15 212.705Z" fill="black"/>
<path d="M381.156 278.511H300.232C299.005 278.511 297.829 278.024 296.961 277.159C296.094 276.293 295.606 275.119 295.606 273.895V216.808C295.606 215.584 296.094 214.41 296.961 213.544C297.829 212.678 299.005 212.192 300.232 212.192H381.156C382.382 212.192 383.559 212.678 384.426 213.544C385.294 214.41 385.781 215.584 385.781 216.808V273.895C385.781 275.119 385.294 276.293 384.426 277.159C383.559 278.024 382.382 278.511 381.156 278.511V278.511ZM300.232 213.218C299.278 213.218 298.363 213.596 297.688 214.269C297.013 214.942 296.634 215.856 296.634 216.808V273.895C296.634 274.847 297.013 275.76 297.688 276.433C298.363 277.107 299.278 277.485 300.232 277.485H381.156C382.11 277.485 383.025 277.107 383.7 276.433C384.374 275.76 384.753 274.847 384.753 273.895V216.808C384.753 215.856 384.374 214.942 383.7 214.269C383.025 213.596 382.11 213.218 381.156 213.218H300.232Z" fill="#4C30FF"/>
<path d="M357.806 259.406H323.576V249.431V227.973H357.806V259.406Z" fill="#4C30FF"/>
<path d="M358.32 259.919H323.067V227.46H358.32V259.919ZM324.095 258.894H357.292V228.486H324.095V258.894Z" fill="black"/>
<path d="M323.576 247.795L331.964 239.733L343.924 249.811L357.806 237.394" fill="#4C30FF"/>
<path d="M343.934 250.488L331.99 240.42L323.936 248.164L323.222 247.426L331.944 239.04L343.914 249.129L357.462 237.01L358.151 237.774L343.934 250.488Z" fill="black"/>
<path d="M343.683 239.41C345.335 239.41 346.674 238.073 346.674 236.425C346.674 234.776 345.335 233.44 343.683 233.44C342.031 233.44 340.691 234.776 340.691 236.425C340.691 238.073 342.031 239.41 343.683 239.41Z" fill="#4C30FF"/>
<path d="M343.672 239.923C342.743 239.923 341.853 239.555 341.195 238.9C340.538 238.245 340.168 237.357 340.167 236.43C340.168 235.503 340.538 234.614 341.195 233.958C341.852 233.302 342.743 232.933 343.672 232.932C344.601 232.933 345.492 233.302 346.149 233.958C346.806 234.614 347.176 235.503 347.177 236.43C347.176 237.357 346.806 238.245 346.149 238.9C345.492 239.555 344.601 239.923 343.672 239.923V239.923ZM343.672 233.958C343.015 233.958 342.385 234.218 341.921 234.682C341.456 235.146 341.195 235.774 341.195 236.43C341.196 237.085 341.458 237.712 341.922 238.175C342.387 238.637 343.016 238.897 343.672 238.897C344.328 238.897 344.958 238.637 345.422 238.175C345.887 237.712 346.148 237.085 346.15 236.43C346.15 235.774 345.889 235.146 345.424 234.682C344.959 234.218 344.329 233.958 343.672 233.958V233.958Z" fill="black"/>
<path d="M318.02 293.143H298.51C297.361 293.143 296.429 294.073 296.429 295.22V295.84C296.429 296.988 297.361 297.918 298.51 297.918H318.02C319.17 297.918 320.102 296.988 320.102 295.84V295.22C320.102 294.073 319.17 293.143 318.02 293.143Z" fill="#4C30FF"/>
<path d="M364.215 293.143H326.238C325.088 293.143 324.156 294.073 324.156 295.22V295.84C324.156 296.988 325.088 297.918 326.238 297.918H364.215C365.364 297.918 366.296 296.988 366.296 295.84V295.22C366.296 294.073 365.364 293.143 364.215 293.143Z" fill="#4C30FF"/>
<path d="M317.141 303.944H297.472C296.898 303.944 296.434 304.407 296.434 304.98V305.292C296.434 305.865 296.898 306.328 297.472 306.328H317.141C317.715 306.328 318.179 305.865 318.179 305.292V304.98C318.179 304.407 317.715 303.944 317.141 303.944Z" fill="#4C30FF"/>
<path d="M376.165 303.944H356.495C355.922 303.944 355.457 304.407 355.457 304.98V305.292C355.457 305.865 355.922 306.328 356.495 306.328H376.165C376.738 306.328 377.203 305.865 377.203 305.292V304.98C377.203 304.407 376.738 303.944 376.165 303.944Z" fill="#4C30FF"/>
<path d="M350.497 303.944H322.98C322.406 303.944 321.941 304.407 321.941 304.98V305.292C321.941 305.865 322.406 306.328 322.98 306.328H350.497C351.071 306.328 351.535 305.865 351.535 305.292V304.98C351.535 304.407 351.071 303.944 350.497 303.944Z" fill="#4C30FF"/>
<path d="M297.41 313.852H317.079C317.652 313.852 318.117 313.388 318.117 312.816V312.504C318.117 311.931 317.652 311.467 317.079 311.467H297.41C296.836 311.467 296.371 311.931 296.371 312.504V312.816C296.371 313.388 296.836 313.852 297.41 313.852Z" fill="#4C30FF"/>
<path d="M323.128 313.852H342.798C343.371 313.852 343.836 313.388 343.836 312.816V312.504C343.836 311.931 343.371 311.467 342.798 311.467H323.128C322.555 311.467 322.09 311.931 322.09 312.504V312.816C322.09 313.388 322.555 313.852 323.128 313.852Z" fill="#4C30FF"/>
<path d="M297.343 332.433H304.446C305.02 332.433 305.484 331.97 305.484 331.397V331.085C305.484 330.512 305.02 330.049 304.446 330.049H297.343C296.77 330.049 296.305 330.512 296.305 331.085V331.397C296.305 331.97 296.77 332.433 297.343 332.433Z" fill="#4C30FF"/>
<path d="M308.964 332.433H316.067C316.641 332.433 317.105 331.97 317.105 331.397V331.085C317.105 330.512 316.641 330.049 316.067 330.049H308.964C308.391 330.049 307.926 330.512 307.926 331.085V331.397C307.926 331.97 308.391 332.433 308.964 332.433Z" fill="#4C30FF"/>
<path d="M495.225 212.705H414.301C412.03 212.705 410.189 214.542 410.189 216.808V273.895C410.189 276.161 412.03 277.998 414.301 277.998H495.225C497.495 277.998 499.336 276.161 499.336 273.895V216.808C499.336 214.542 497.495 212.705 495.225 212.705Z" fill="black"/>
<path d="M495.229 278.511H414.3C413.074 278.511 411.897 278.024 411.03 277.159C410.162 276.293 409.675 275.119 409.675 273.895V216.808C409.675 215.584 410.162 214.41 411.03 213.544C411.897 212.678 413.074 212.192 414.3 212.192H495.229C496.456 212.192 497.632 212.678 498.5 213.544C499.367 214.41 499.855 215.584 499.855 216.808V273.895C499.855 275.119 499.367 276.293 498.5 277.159C497.632 278.024 496.456 278.511 495.229 278.511V278.511ZM414.3 213.218C413.346 213.218 412.431 213.596 411.757 214.269C411.082 214.942 410.703 215.856 410.703 216.808V273.895C410.703 274.847 411.082 275.76 411.757 276.433C412.431 277.107 413.346 277.485 414.3 277.485H495.229C496.183 277.485 497.098 277.107 497.773 276.433C498.448 275.76 498.827 274.847 498.827 273.895V216.808C498.827 215.856 498.448 214.942 497.773 214.269C497.098 213.596 496.183 213.218 495.229 213.218H414.3Z" fill="#F48A4F"/>
<path d="M419.847 293.143H412.173C411.024 293.143 410.092 294.073 410.092 295.22V295.84C410.092 296.988 411.024 297.918 412.173 297.918H419.847C420.996 297.918 421.928 296.988 421.928 295.84V295.22C421.928 294.073 420.996 293.143 419.847 293.143Z" fill="#4C30FF"/>
<path d="M466.042 293.143H428.065C426.915 293.143 425.983 294.073 425.983 295.22V295.84C425.983 296.988 426.915 297.918 428.065 297.918H466.042C467.191 297.918 468.123 296.988 468.123 295.84V295.22C468.123 294.073 467.191 293.143 466.042 293.143Z" fill="#4C30FF"/>
<path d="M434.526 303.944H411.228C410.654 303.944 410.189 304.407 410.189 304.98V305.292C410.189 305.865 410.654 306.328 411.228 306.328H434.526C435.099 306.328 435.564 305.865 435.564 305.292V304.98C435.564 304.407 435.099 303.944 434.526 303.944Z" fill="#4C30FF"/>
<path d="M460.552 303.944H440.883C440.31 303.944 439.845 304.407 439.845 304.98V305.292C439.845 305.865 440.31 306.328 440.883 306.328H460.552C461.126 306.328 461.591 305.865 461.591 305.292V304.98C461.591 304.407 461.126 303.944 460.552 303.944Z" fill="#4C30FF"/>
<path d="M493.903 303.944H466.386C465.812 303.944 465.348 304.407 465.348 304.98V305.292C465.348 305.865 465.812 306.328 466.386 306.328H493.903C494.477 306.328 494.942 305.865 494.942 305.292V304.98C494.942 304.407 494.477 303.944 493.903 303.944Z" fill="#4C30FF"/>
<path d="M453.11 313.852H472.78C473.353 313.852 473.818 313.388 473.818 312.816V312.504C473.818 311.931 473.353 311.467 472.78 311.467H453.11C452.537 311.467 452.072 311.931 452.072 312.504V312.816C452.072 313.388 452.537 313.852 453.11 313.852Z" fill="#4C30FF"/>
<path d="M411.243 332.433H418.346C418.919 332.433 419.384 331.97 419.384 331.397V331.085C419.384 330.512 418.919 330.049 418.346 330.049H411.243C410.669 330.049 410.204 330.512 410.204 331.085V331.397C410.204 331.97 410.669 332.433 411.243 332.433Z" fill="#4C30FF"/>
<path d="M422.864 332.433H429.967C430.54 332.433 431.005 331.97 431.005 331.397V331.085C431.005 330.512 430.54 330.049 429.967 330.049H422.864C422.29 330.049 421.826 330.512 421.826 331.085V331.397C421.826 331.97 422.29 332.433 422.864 332.433Z" fill="#4C30FF"/>
<path d="M411.366 313.852H447.333C447.906 313.852 448.371 313.388 448.371 312.816V312.504C448.371 311.931 447.906 311.467 447.333 311.467H411.366C410.792 311.467 410.328 311.931 410.328 312.504V312.816C410.328 313.388 410.792 313.852 411.366 313.852Z" fill="#4C30FF"/>
<path d="M488.27 223.69H421.394V266.858H488.27V223.69Z" fill="black"/>
<path d="M488.779 267.376H420.879V223.183H488.779V267.376ZM421.907 266.351H487.751V224.208H421.907V266.351Z" fill="#F48A4F"/>
<path d="M423.459 221.962H419.45V225.962H423.459V221.962Z" fill="black"/>
<path d="M423.973 226.475H418.937V221.454H423.973V226.475ZM419.964 225.449H422.945V222.48H419.964V225.449Z" fill="#F48A4F"/>
<path d="M490.079 264.909H486.533V268.448H490.079V264.909Z" fill="black"/>
<path d="M490.588 268.961H486.04V264.427H490.609L490.588 268.961ZM487.047 267.935H489.56V265.453H487.067L487.047 267.935Z" fill="#F48A4F"/>
<path d="M423.382 265.273H419.836V268.812H423.382V265.273Z" fill="black"/>
<path d="M423.897 269.325H419.322V264.766H423.897V269.325ZM420.35 268.299H422.869V265.792H420.35V268.299Z" fill="#F48A4F"/>
<path d="M490.069 221.885H486.06V225.885H490.069V221.885Z" fill="black"/>
<path d="M490.583 226.398H485.551V221.377H490.583V226.398ZM486.579 225.373H489.555V222.403H486.579V225.373Z" fill="#F48A4F"/>
<path d="M445.04 236.379H449.358L455.217 254.088H451.794L450.375 249.708H443.601L442.214 254.088H439.13L445.04 236.379ZM444.372 247.303H449.61L447.004 239.097L444.372 247.303Z" fill="#F48A4F"/>
<path d="M456.744 250.498C456.744 247.477 459.673 246.395 463.399 246.395H465.013V245.723C465.013 243.99 464.417 243.123 462.654 243.123C461.112 243.123 460.321 243.867 460.172 245.174H457.258C457.504 242.154 459.91 240.892 462.819 240.892C465.728 240.892 468.005 242.077 468.005 245.621V254.114H465.049V252.529C464.206 253.647 463.065 254.365 461.082 254.365C458.692 254.339 456.744 253.201 456.744 250.498ZM465.013 249.559V248.272H463.471C461.189 248.272 459.725 248.785 459.725 250.375C459.725 251.467 460.321 252.185 461.811 252.185C463.631 252.185 464.998 251.216 464.998 249.554L465.013 249.559Z" fill="#F48A4F"/>
<path d="M520.83 169.675H348.837C347.177 169.699 345.575 169.064 344.383 167.91C343.191 166.756 342.507 165.178 342.479 163.521C342.507 161.864 343.191 160.285 344.383 159.132C345.575 157.978 347.177 157.343 348.837 157.366H520.83C522.491 157.342 524.094 157.976 525.287 159.13C526.48 160.284 527.166 161.863 527.193 163.521C527.166 165.179 526.48 166.758 525.287 167.912C524.094 169.066 522.491 169.7 520.83 169.675ZM348.837 158.905C347.586 158.882 346.376 159.354 345.473 160.22C344.57 161.085 344.048 162.272 344.021 163.521C344.05 164.769 344.572 165.955 345.475 166.82C346.377 167.685 347.586 168.159 348.837 168.137H520.83C522.082 168.16 523.292 167.688 524.196 166.822C525.099 165.957 525.622 164.77 525.651 163.521C525.624 162.271 525.101 161.083 524.197 160.218C523.293 159.352 522.082 158.88 520.83 158.905H348.837Z" fill="#9079A7"/>
<path d="M494.039 250.99H491.223V252.955H494.039V250.99Z" fill="#9079A7"/>
<path d="M495.801 252.744H493.833V254.709H495.801V252.744Z" fill="#9079A7"/>
<path d="M497.564 254.498H495.596V256.463H497.564V254.498Z" fill="#9079A7"/>
<path d="M499.322 256.252H497.354V258.216H499.322V256.252Z" fill="#9079A7"/>
<path d="M501.08 258.006H499.111V259.971H501.08V258.006Z" fill="#9079A7"/>
<path d="M502.838 259.765H500.869V261.73H502.838V259.765Z" fill="#9079A7"/>
<path d="M504.595 261.52H502.627V263.484H504.595V261.52Z" fill="#9079A7"/>
<path d="M504.595 272.669H502.627V274.633H504.595V272.669Z" fill="#9079A7"/>
<path d="M506.358 263.273H504.39V265.238H506.358V263.273Z" fill="#9079A7"/>
<path d="M508.116 265.027H506.147V266.992H508.116V265.027Z" fill="#9079A7"/>
<path d="M509.874 266.781H507.905V268.746H509.874V266.781Z" fill="#9079A7"/>
<path d="M499.091 272.669H497.122V274.633H499.091V272.669Z" fill="#9079A7"/>
<path d="M497.128 274.634H495.159V276.598H497.128V274.634Z" fill="#9079A7"/>
<path d="M495.159 276.593H493.19V278.557H495.159V276.593Z" fill="#9079A7"/>
<path d="M493.19 280.521V278.557H489.259V280.521H493.19Z" fill="#9079A7"/>
<path d="M506.564 284.444V282.48H502.633V284.444H506.564Z" fill="#9079A7"/>
<path d="M509.931 272.669V270.705H502.633V272.669H509.931Z" fill="#9079A7"/>
<path d="M509.868 272.669H511.837V268.746H509.868V272.669Z" fill="#9079A7"/>
<path d="M504.596 278.557H506.564V274.634H504.596V278.557Z" fill="#9079A7"/>
<path d="M499.112 278.557H501.08V274.634H499.112V278.557Z" fill="#9079A7"/>
<path d="M506.559 282.48H508.527V278.557H506.559V282.48Z" fill="#9079A7"/>
<path d="M500.658 282.48H502.627V278.557H500.658V282.48Z" fill="#9079A7"/>
<path d="M489.254 278.562H491.223V249.026H489.254V278.562Z" fill="#9079A7"/>
<path d="M491.222 252.949H493.833V254.703H495.596V256.462H497.354V258.216H499.112V259.97H500.869V261.724H502.627V263.478H504.39V265.238H506.148V266.992H507.905V268.746H509.869V270.71H502.627V274.633H504.595V278.557H506.564V282.48H502.627V278.557H501.08V274.633H499.112V272.669H497.122V274.633H495.159V276.592H493.191V278.557H491.222V252.949Z" fill="black"/>
<path d="M129.093 317.894L123.259 310.755C121.504 308.863 120.531 306.378 120.535 303.8V86.0266C120.535 83.3062 121.618 80.6972 123.546 78.7736C125.474 76.85 128.088 75.7693 130.814 75.7693H233.252C234.734 75.7698 236.198 76.0911 237.543 76.7109C238.888 77.3307 240.083 78.2342 241.044 79.3594L247.006 86.6677" fill="black"/>
<path d="M128.496 318.381L122.662 311.242C120.792 309.214 119.756 306.556 119.764 303.8V86.0266C119.766 83.103 120.932 80.3 123.003 78.2327C125.075 76.1654 127.884 75.0027 130.814 75H233.252C234.843 75.0003 236.416 75.3437 237.862 76.0067C239.308 76.6697 240.593 77.6368 241.63 78.8415L247.607 86.1651L246.409 87.1395L240.447 79.8262C239.555 78.7945 238.451 77.9666 237.209 77.3993C235.967 76.832 234.618 76.5385 233.252 76.5386H130.814C128.293 76.5413 125.876 77.5418 124.094 79.3206C122.311 81.0993 121.308 83.5111 121.306 86.0266V303.8C121.303 306.187 122.204 308.486 123.829 310.237L129.688 317.417L128.496 318.381Z" fill="#9079A7"/>
<path d="M131.817 75.2604L130.621 76.2318L135.437 82.134L136.632 81.1626L131.817 75.2604Z" fill="#9079A7"/>
<path d="M121.018 85.2574L119.815 86.2267L124.974 92.5993L126.176 91.63L121.018 85.2574Z" fill="#9079A7"/>
<path d="M238.391 81.9442H135.989C130.312 81.9442 125.71 86.5366 125.71 92.2015V310.293C125.71 315.958 130.312 320.55 135.989 320.55H238.391C244.068 320.55 248.671 315.958 248.671 310.293V92.2015C248.671 86.5366 244.068 81.9442 238.391 81.9442Z" fill="black"/>
<path d="M238.397 321.325H135.99C133.06 321.321 130.252 320.158 128.18 318.091C126.109 316.024 124.944 313.221 124.939 310.298V92.2068C124.942 89.2832 126.107 86.4799 128.179 84.4126C130.251 82.3453 133.06 81.1829 135.99 81.1802H238.397C241.327 81.1829 244.136 82.3453 246.208 84.4126C248.279 86.4799 249.444 89.2832 249.447 92.2068V310.298C249.443 313.221 248.277 316.024 246.206 318.091C244.135 320.158 241.326 321.321 238.397 321.325V321.325ZM135.99 82.7188C133.469 82.7215 131.052 83.722 129.269 85.5007C127.487 87.2795 126.484 89.6913 126.481 92.2068V310.298C126.484 312.814 127.487 315.225 129.269 317.004C131.052 318.783 133.469 319.783 135.99 319.786H238.397C240.918 319.783 243.335 318.783 245.117 317.004C246.9 315.225 247.902 312.814 247.905 310.298V92.2068C247.902 89.6913 246.9 87.2795 245.117 85.5007C243.335 83.722 240.918 82.7215 238.397 82.7188H135.99Z" fill="#9079A7"/>
<path d="M143.602 103.741C141.941 103.764 140.34 103.13 139.148 101.976C137.956 100.822 137.271 99.2436 137.244 97.5868C137.271 95.93 137.956 94.3516 139.148 93.1979C140.34 92.0441 141.941 91.4091 143.602 91.4324C145.262 91.4091 146.864 92.0441 148.056 93.1979C149.248 94.3516 149.933 95.93 149.96 97.5868C149.933 99.2436 149.248 100.822 148.056 101.976C146.864 103.13 145.262 103.764 143.602 103.741V103.741ZM143.602 92.971C142.351 92.949 141.142 93.4222 140.239 94.2872C139.337 95.1522 138.814 96.3385 138.786 97.5868C138.814 98.8351 139.337 100.021 140.239 100.886C141.142 101.751 142.351 102.225 143.602 102.203C144.853 102.226 146.063 101.753 146.966 100.888C147.869 100.023 148.391 98.8356 148.418 97.5868C148.389 96.3389 147.867 95.1531 146.964 94.289C146.061 93.4248 144.853 92.9529 143.602 92.9762V92.971Z" fill="#9079A7"/>
<path d="M165.953 103.741C164.293 103.764 162.691 103.13 161.499 101.976C160.307 100.822 159.623 99.2436 159.596 97.5868C159.623 95.93 160.307 94.3516 161.499 93.1979C162.691 92.0441 164.293 91.4091 165.953 91.4324C167.614 91.4091 169.216 92.0441 170.408 93.1979C171.6 94.3516 172.284 95.93 172.311 97.5868C172.284 99.2436 171.6 100.822 170.408 101.976C169.216 103.13 167.614 103.764 165.953 103.741V103.741ZM165.953 92.971C164.702 92.9476 163.492 93.4205 162.589 94.2857C161.687 95.151 161.165 96.338 161.138 97.5868C161.165 98.8356 161.687 100.023 162.589 100.888C163.492 101.753 164.702 102.226 165.953 102.203C167.205 102.226 168.415 101.753 169.317 100.888C170.22 100.023 170.742 98.8356 170.769 97.5868C170.741 96.3389 170.218 95.1531 169.316 94.289C168.413 93.4248 167.204 92.9529 165.953 92.9762V92.971Z" fill="#9079A7"/>
<path d="M188.306 103.741C186.646 103.764 185.044 103.13 183.852 101.976C182.66 100.822 181.975 99.2436 181.948 97.5868C181.975 95.93 182.66 94.3516 183.852 93.1979C185.044 92.0441 186.646 91.4091 188.306 91.4324C189.966 91.4091 191.568 92.0441 192.76 93.1979C193.952 94.3516 194.637 95.93 194.664 97.5868C194.637 99.2436 193.952 100.822 192.76 101.976C191.568 103.13 189.966 103.764 188.306 103.741V103.741ZM188.306 92.971C187.054 92.9476 185.845 93.4205 184.942 94.2857C184.039 95.151 183.517 96.338 183.49 97.5868C183.517 98.8356 184.039 100.023 184.942 100.888C185.845 101.753 187.054 102.226 188.306 102.203C189.557 102.226 190.767 101.753 191.67 100.888C192.573 100.023 193.095 98.8356 193.122 97.5868C193.093 96.3389 192.571 95.1531 191.668 94.289C190.766 93.4248 189.557 92.9529 188.306 92.9762V92.971Z" fill="#9079A7"/>
<path d="M248.671 111.675H125.71V113.214H248.671V111.675Z" fill="#9079A7"/>
<path d="M227.161 128.497H146.238C143.967 128.497 142.126 130.334 142.126 132.6V189.687C142.126 191.953 143.967 193.79 146.238 193.79H227.161C229.432 193.79 231.273 191.953 231.273 189.687V132.6C231.273 130.334 229.432 128.497 227.161 128.497Z" fill="black"/>
<path d="M227.167 194.303H146.238C145.011 194.303 143.835 193.817 142.967 192.951C142.1 192.085 141.612 190.911 141.612 189.687V132.621C141.612 131.396 142.1 130.222 142.967 129.357C143.835 128.491 145.011 128.005 146.238 128.005H227.167C228.393 128.005 229.57 128.491 230.437 129.357C231.305 130.222 231.792 131.396 231.792 132.621V189.708C231.787 190.928 231.297 192.097 230.43 192.958C229.563 193.819 228.39 194.303 227.167 194.303V194.303ZM146.238 129.03C145.284 129.03 144.369 129.409 143.694 130.082C143.019 130.755 142.64 131.668 142.64 132.621V189.708C142.64 190.66 143.019 191.573 143.694 192.246C144.369 192.92 145.284 193.298 146.238 193.298H227.167C228.121 193.298 229.036 192.92 229.711 192.246C230.385 191.573 230.764 190.66 230.764 189.708V132.621C230.764 131.668 230.385 130.755 229.711 130.082C229.036 129.409 228.121 129.03 227.167 129.03H146.238Z" fill="#4C30FF"/>
<path d="M203.813 175.199H169.588V165.223V143.765H203.813V175.199Z" fill="#4C30FF"/>
<path d="M204.331 175.701H169.073V143.242H204.331V175.701ZM170.101 174.676H203.303V144.268H170.101V174.676Z" fill="black"/>
<path d="M169.588 163.587L177.976 155.525L189.936 165.603L203.813 153.187" fill="#4C30FF"/>
<path d="M189.945 166.28L177.996 156.212L169.942 163.957L169.228 163.218L177.955 154.833L189.925 164.921L203.473 152.802L204.156 153.566L189.945 166.28Z" fill="black"/>
<path d="M189.689 155.202C191.341 155.202 192.68 153.866 192.68 152.217C192.68 150.569 191.341 149.232 189.689 149.232C188.037 149.232 186.697 150.569 186.697 152.217C186.697 153.866 188.037 155.202 189.689 155.202Z" fill="#4C30FF"/>
<path d="M189.694 155.7C188.765 155.698 187.875 155.33 187.218 154.675C186.562 154.021 186.191 153.133 186.188 152.207C186.19 151.28 186.56 150.391 187.217 149.735C187.874 149.08 188.765 148.711 189.694 148.709C190.622 148.712 191.512 149.081 192.168 149.737C192.823 150.392 193.192 151.281 193.194 152.207C193.192 153.133 192.823 154.02 192.167 154.675C191.511 155.33 190.622 155.698 189.694 155.7ZM189.694 149.735C189.037 149.735 188.407 149.995 187.942 150.459C187.477 150.923 187.216 151.551 187.216 152.207C187.218 152.862 187.479 153.489 187.944 153.952C188.408 154.414 189.038 154.674 189.694 154.674C190.349 154.672 190.977 154.412 191.44 153.95C191.904 153.487 192.165 152.861 192.166 152.207C192.162 151.555 191.9 150.931 191.437 150.471C190.974 150.011 190.347 149.752 189.694 149.75V149.735Z" fill="black"/>
<path d="M164.031 208.935H144.521C143.371 208.935 142.439 209.865 142.439 211.012V211.633C142.439 212.78 143.371 213.71 144.521 213.71H164.031C165.181 213.71 166.113 212.78 166.113 211.633V211.012C166.113 209.865 165.181 208.935 164.031 208.935Z" fill="#4C30FF"/>
<path d="M210.226 208.935H172.25C171.1 208.935 170.168 209.865 170.168 211.012V211.633C170.168 212.78 171.1 213.71 172.25 213.71H210.226C211.376 213.71 212.308 212.78 212.308 211.633V211.012C212.308 209.865 211.376 208.935 210.226 208.935Z" fill="#4C30FF"/>
<path d="M163.153 219.736H143.484C142.91 219.736 142.445 220.2 142.445 220.772V221.085C142.445 221.657 142.91 222.121 143.484 222.121H163.153C163.726 222.121 164.191 221.657 164.191 221.085V220.772C164.191 220.2 163.726 219.736 163.153 219.736Z" fill="#4C30FF"/>
<path d="M222.171 219.736H202.502C201.929 219.736 201.464 220.2 201.464 220.772V221.085C201.464 221.657 201.929 222.121 202.502 222.121H222.171C222.745 222.121 223.21 221.657 223.21 221.085V220.772C223.21 220.2 222.745 219.736 222.171 219.736Z" fill="#4C30FF"/>
<path d="M196.504 219.736H168.986C168.413 219.736 167.948 220.2 167.948 220.772V221.085C167.948 221.657 168.413 222.121 168.986 222.121H196.504C197.077 222.121 197.542 221.657 197.542 221.085V220.772C197.542 220.2 197.077 219.736 196.504 219.736Z" fill="#4C30FF"/>
<path d="M143.412 229.645H163.081C163.654 229.645 164.119 229.181 164.119 228.609V228.296C164.119 227.724 163.654 227.26 163.081 227.26H143.412C142.838 227.26 142.373 227.724 142.373 228.296V228.609C142.373 229.181 142.838 229.645 143.412 229.645Z" fill="#4C30FF"/>
<path d="M169.14 229.645H188.809C189.383 229.645 189.848 229.181 189.848 228.609V228.296C189.848 227.724 189.383 227.26 188.809 227.26H169.14C168.567 227.26 168.102 227.724 168.102 228.296V228.609C168.102 229.181 168.567 229.645 169.14 229.645Z" fill="#4C30FF"/>
<path d="M143.35 248.226H150.453C151.026 248.226 151.491 247.762 151.491 247.19V246.877C151.491 246.305 151.026 245.841 150.453 245.841H143.35C142.777 245.841 142.312 246.305 142.312 246.877V247.19C142.312 247.762 142.777 248.226 143.35 248.226Z" fill="#4C30FF"/>
<path d="M154.975 248.226H162.078C162.651 248.226 163.116 247.762 163.116 247.19V246.877C163.116 246.305 162.651 245.841 162.078 245.841H154.975C154.402 245.841 153.937 246.305 153.937 246.877V247.19C153.937 247.762 154.402 248.226 154.975 248.226Z" fill="#4C30FF"/>
<path d="M142.198 319.909V263.848C142.198 262.76 142.631 261.716 143.403 260.947C144.174 260.177 145.219 259.745 146.31 259.745H227.233C228.324 259.745 229.37 260.177 230.141 260.947C230.912 261.716 231.345 262.76 231.345 263.848V319.909" fill="black"/>
<path d="M231.839 319.909H230.811V263.848C230.811 263.377 230.718 262.91 230.537 262.474C230.356 262.039 230.091 261.643 229.757 261.309C229.423 260.976 229.026 260.712 228.59 260.531C228.153 260.351 227.686 260.258 227.213 260.258H146.31C145.356 260.258 144.441 260.636 143.766 261.309C143.092 261.983 142.712 262.896 142.712 263.848V319.909H141.685V263.848C141.685 262.624 142.172 261.45 143.039 260.584C143.907 259.718 145.083 259.232 146.31 259.232H227.234C228.461 259.232 229.637 259.718 230.505 260.584C231.372 261.45 231.859 262.624 231.859 263.848L231.839 319.909Z" fill="#4C30FF"/>
<path d="M220.254 270.73H153.377V313.898H220.254V270.73Z" fill="black"/>
<path d="M220.768 314.417H152.863V270.218H220.768V314.417ZM153.891 313.391H219.74V271.243H153.891V313.391Z" fill="#4C30FF"/>
<path d="M155.448 269.002H151.439V273.003H155.448V269.002Z" fill="black"/>
<path d="M155.957 273.515H150.936V268.489H155.967L155.957 273.515ZM151.953 272.49H154.929V269.515H151.963L151.953 272.49Z" fill="#4C30FF"/>
<path d="M222.063 311.949H218.517V315.488H222.063V311.949Z" fill="black"/>
<path d="M222.577 316.001H218.003V311.437H222.577V316.001ZM219.031 314.976H221.549V312.463H219.031V314.976Z" fill="#4C30FF"/>
<path d="M155.366 312.314H151.819V315.853H155.366V312.314Z" fill="black"/>
<path d="M155.88 316.365H151.311V311.801H155.88V316.365ZM152.338 315.34H154.852V312.827H152.338V315.34Z" fill="#4C30FF"/>
<path d="M222.058 268.925H218.049V272.926H222.058V268.925Z" fill="black"/>
<path d="M222.572 273.438H217.535V268.412H222.572V273.438ZM218.563 272.413H221.544V269.438H218.563V272.413Z" fill="#4C30FF"/>
<path d="M177.03 283.403H181.347L187.201 301.112H183.778L182.365 296.728H175.606L174.219 301.112H171.135L177.03 283.403ZM176.357 294.327H181.594L178.988 286.121L176.357 294.327Z" fill="#4C30FF"/>
<path d="M188.717 297.538C188.717 294.517 191.646 293.435 195.367 293.435H196.981V292.768C196.981 291.035 196.385 290.168 194.622 290.168C193.08 290.168 192.289 290.907 192.14 292.22H189.236C189.483 289.194 191.893 287.932 194.797 287.932C197.701 287.932 199.983 289.122 199.983 292.666V301.159H197.033V299.574C196.185 300.687 195.044 301.405 193.06 301.405C190.675 301.354 188.717 300.236 188.717 297.538ZM196.981 296.595V295.307H195.439C193.157 295.307 191.693 295.82 191.693 297.415C191.693 298.502 192.289 299.22 193.779 299.22C195.614 299.22 196.981 298.277 196.981 296.595Z" fill="#4C30FF"/>
<path d="M62.328 469.405L56.4997 462.266C54.7453 460.371 53.7708 457.886 53.7705 455.306V255.709C53.7705 252.988 54.8535 250.379 56.7813 248.455C58.709 246.532 61.3235 245.451 64.0498 245.451H298.016C299.498 245.452 300.962 245.773 302.307 246.393C303.652 247.013 304.846 247.916 305.808 249.041L311.77 256.355" fill="black"/>
<path d="M61.7322 469.892L55.9039 462.753C54.0322 460.723 52.9954 458.064 53 455.306V255.709C53.0027 252.785 54.1679 249.982 56.2396 247.915C58.3113 245.847 61.1204 244.685 64.0502 244.682H298.017C299.607 244.682 301.18 245.024 302.626 245.686C304.071 246.348 305.357 247.314 306.394 248.518L312.372 255.847L311.174 256.816L305.212 249.508C304.32 248.476 303.216 247.648 301.974 247.08C300.732 246.513 299.382 246.22 298.017 246.22H64.0759C61.555 246.223 59.1381 247.224 57.3555 249.002C55.573 250.781 54.5703 253.193 54.5676 255.709V455.332C54.5664 457.718 55.4677 460.016 57.0912 461.768L62.9555 468.948L61.7322 469.892Z" fill="#9079A7"/>
<path d="M65.06 244.915L63.8643 245.886L68.6797 251.788L69.8754 250.817L65.06 244.915Z" fill="#9079A7"/>
<path d="M302.991 251.329H69.3181C63.6865 251.329 59.1211 255.884 59.1211 261.504V462.055C59.1211 467.675 63.6865 472.231 69.3181 472.231H302.991C308.623 472.231 313.188 467.675 313.188 462.055V261.504C313.188 255.884 308.623 251.329 302.991 251.329Z" fill="black"/>
<path d="M302.992 473H69.3234C66.4154 472.997 63.6272 471.843 61.5709 469.791C59.5146 467.739 58.3582 464.957 58.3555 462.055V261.524C58.3582 258.622 59.5146 255.84 61.5709 253.789C63.6272 251.737 66.4154 250.583 69.3234 250.58H302.992C305.9 250.583 308.688 251.737 310.744 253.789C312.8 255.84 313.957 258.622 313.96 261.524V462.055C313.957 464.957 312.8 467.739 310.744 469.791C308.688 471.843 305.9 472.997 302.992 473V473ZM69.3234 252.118C66.8243 252.121 64.4284 253.113 62.6612 254.876C60.8941 256.64 59.9001 259.031 59.8974 261.524V462.055C59.9001 464.549 60.8941 466.94 62.6612 468.703C64.4284 470.467 66.8243 471.459 69.3234 471.461H302.992C305.491 471.459 307.887 470.467 309.654 468.703C311.421 466.94 312.415 464.549 312.418 462.055V261.524C312.415 259.031 311.421 256.64 309.654 254.876C307.887 253.113 305.491 252.121 302.992 252.118H69.3234Z" fill="#9079A7"/>
<path d="M80.4452 273.505C83.5307 273.505 86.032 271.096 86.032 268.125C86.032 265.154 83.5307 262.745 80.4452 262.745C77.3597 262.745 74.8584 265.154 74.8584 268.125C74.8584 271.096 77.3597 273.505 80.4452 273.505Z" fill="black"/>
<path d="M80.4456 274.279C78.7852 274.303 77.1833 273.668 75.9914 272.514C74.7995 271.36 74.1149 269.782 74.0879 268.125C74.1149 266.468 74.7995 264.89 75.9914 263.736C77.1833 262.582 78.7852 261.947 80.4456 261.971C82.1069 261.946 83.7101 262.58 84.9031 263.734C86.0962 264.888 86.7814 266.467 86.8085 268.125C86.7814 269.783 86.0962 271.362 84.9031 272.516C83.7101 273.67 82.1069 274.304 80.4456 274.279ZM80.4456 263.509C79.1945 263.487 77.9855 263.961 77.0831 264.825C76.1806 265.69 75.6581 266.877 75.6298 268.125C75.6568 269.374 76.1789 270.561 77.0816 271.426C77.9844 272.291 79.1941 272.764 80.4456 272.741C81.698 272.766 82.909 272.294 83.8129 271.428C84.7168 270.563 85.2396 269.375 85.2666 268.125C85.2369 266.877 84.7131 265.691 83.8097 264.827C82.9063 263.963 81.6967 263.491 80.4456 263.515V263.509Z" fill="#9079A7"/>
<path d="M102.798 273.505C105.883 273.505 108.385 271.096 108.385 268.125C108.385 265.154 105.883 262.745 102.798 262.745C99.7122 262.745 97.2109 265.154 97.2109 268.125C97.2109 271.096 99.7122 273.505 102.798 273.505Z" fill="black"/>
<path d="M102.798 274.28C101.138 274.303 99.5358 273.668 98.344 272.514C97.1521 271.361 96.4675 269.782 96.4404 268.125C96.4675 266.468 97.1521 264.89 98.344 263.736C99.5358 262.583 101.138 261.948 102.798 261.971C104.459 261.948 106.06 262.583 107.252 263.736C108.444 264.89 109.129 266.468 109.156 268.125C109.13 269.782 108.446 271.362 107.254 272.516C106.062 273.67 104.459 274.304 102.798 274.28V274.28ZM102.798 263.509C101.547 263.487 100.338 263.961 99.4356 264.826C98.5332 265.691 98.0107 266.877 97.9823 268.125C98.0093 269.374 98.5314 270.561 99.4342 271.426C100.337 272.292 101.547 272.764 102.798 272.741C104.05 272.766 105.261 272.293 106.164 271.428C107.067 270.562 107.588 269.374 107.614 268.125C107.586 266.877 107.063 265.692 106.16 264.827C105.258 263.963 104.049 263.491 102.798 263.515V263.509Z" fill="#9079A7"/>
<path d="M125.15 273.505C128.236 273.505 130.737 271.096 130.737 268.125C130.737 265.154 128.236 262.745 125.15 262.745C122.065 262.745 119.563 265.154 119.563 268.125C119.563 271.096 122.065 273.505 125.15 273.505Z" fill="black"/>
<path d="M125.15 274.28C123.489 274.303 121.887 273.668 120.696 272.514C119.504 271.361 118.819 269.782 118.792 268.125C118.819 266.468 119.504 264.89 120.696 263.736C121.887 262.583 123.489 261.948 125.15 261.971C126.81 261.948 128.412 262.583 129.604 263.736C130.796 264.89 131.48 266.468 131.507 268.125C131.48 269.782 130.796 271.361 129.604 272.514C128.412 273.668 126.81 274.303 125.15 274.28ZM125.15 263.509C123.899 263.487 122.69 263.961 121.787 264.826C120.885 265.691 120.362 266.877 120.334 268.125C120.361 269.374 120.883 270.561 121.786 271.426C122.688 272.292 123.898 272.764 125.15 272.741C126.402 272.766 127.612 272.293 128.515 271.428C129.418 270.562 129.94 269.374 129.966 268.125C129.937 266.877 129.415 265.692 128.512 264.827C127.609 263.963 126.4 263.491 125.15 263.515V263.509Z" fill="#9079A7"/>
<path d="M255.121 265.92H227.629C227.056 265.92 226.591 266.384 226.591 266.956V269.3C226.591 269.872 227.056 270.336 227.629 270.336H255.121C255.694 270.336 256.159 269.872 256.159 269.3V266.956C256.159 266.384 255.694 265.92 255.121 265.92Z" fill="#9079A7"/>
<path d="M91.9689 299.877H86.4181C85.8447 299.877 85.3799 300.341 85.3799 300.913V302.549C85.3799 303.121 85.8447 303.585 86.4181 303.585H91.9689C92.5423 303.585 93.0071 303.121 93.0071 302.549V300.913C93.0071 300.341 92.5423 299.877 91.9689 299.877Z" fill="#F48A4F"/>
<path d="M81.4474 299.877H75.8966C75.3232 299.877 74.8584 300.341 74.8584 300.913V302.549C74.8584 303.121 75.3232 303.585 75.8966 303.585H81.4474C82.0208 303.585 82.4856 303.121 82.4856 302.549V300.913C82.4856 300.341 82.0208 299.877 81.4474 299.877Z" fill="#F48A4F"/>
<path d="M107.588 299.877H95.7872C95.2138 299.877 94.749 300.341 94.749 300.913V302.549C94.749 303.121 95.2138 303.585 95.7872 303.585H107.588C108.161 303.585 108.626 303.121 108.626 302.549V300.913C108.626 300.341 108.161 299.877 107.588 299.877Z" fill="#F48A4F"/>
<path d="M119.368 299.877H114.506C113.933 299.877 113.468 300.341 113.468 300.913V302.549C113.468 303.121 113.933 303.585 114.506 303.585H119.368C119.941 303.585 120.406 303.121 120.406 302.549V300.913C120.406 300.341 119.941 299.877 119.368 299.877Z" fill="#F48A4F"/>
<path d="M145.4 299.877H125.253C124.68 299.877 124.215 300.341 124.215 300.913V302.549C124.215 303.121 124.68 303.585 125.253 303.585H145.4C145.974 303.585 146.439 303.121 146.439 302.549V300.913C146.439 300.341 145.974 299.877 145.4 299.877Z" fill="#F48A4F"/>
<path d="M102.885 309.334H75.8966C75.3232 309.334 74.8584 309.798 74.8584 310.37V312.006C74.8584 312.578 75.3232 313.042 75.8966 313.042H102.885C103.458 313.042 103.923 312.578 103.923 312.006V310.37C103.923 309.798 103.458 309.334 102.885 309.334Z" fill="#4C30FF"/>
<path d="M164.052 309.334H159.19C158.616 309.334 158.151 309.798 158.151 310.37V312.006C158.151 312.578 158.616 313.042 159.19 313.042H164.052C164.625 313.042 165.09 312.578 165.09 312.006V310.37C165.09 309.798 164.625 309.334 164.052 309.334Z" fill="#4C30FF"/>
<path d="M193.533 309.334H170.775C170.201 309.334 169.736 309.798 169.736 310.37V312.006C169.736 312.578 170.201 313.042 170.775 313.042H193.533C194.106 313.042 194.571 312.578 194.571 312.006V310.37C194.571 309.798 194.106 309.334 193.533 309.334Z" fill="#4C30FF"/>
<path d="M120.468 309.334H108.755C108.182 309.334 107.717 309.798 107.717 310.37V312.006C107.717 312.578 108.182 313.042 108.755 313.042H120.468C121.042 313.042 121.506 312.578 121.506 312.006V310.37C121.506 309.798 121.042 309.334 120.468 309.334Z" fill="#4C30FF"/>
<path d="M98.7423 328.982H75.8966C75.3232 328.982 74.8584 329.446 74.8584 330.018V331.654C74.8584 332.226 75.3232 332.69 75.8966 332.69H98.7423C99.3157 332.69 99.7805 332.226 99.7805 331.654V330.018C99.7805 329.446 99.3157 328.982 98.7423 328.982Z" fill="#4C30FF"/>
<path d="M91.444 338.967H75.8966C75.3232 338.967 74.8584 339.431 74.8584 340.003V341.639C74.8584 342.212 75.3232 342.675 75.8966 342.675H91.444C92.0174 342.675 92.4822 342.212 92.4822 341.639V340.003C92.4822 339.431 92.0174 338.967 91.444 338.967Z" fill="#4C30FF"/>
<path d="M113.586 338.967H98.0382C97.4648 338.967 97 339.431 97 340.003V341.639C97 342.212 97.4648 342.675 98.0382 342.675H113.586C114.159 342.675 114.624 342.212 114.624 341.639V340.003C114.624 339.431 114.159 338.967 113.586 338.967Z" fill="#4C30FF"/>
<path d="M98.7423 358.713H75.8966C75.3232 358.713 74.8584 359.176 74.8584 359.749V361.385C74.8584 361.957 75.3232 362.421 75.8966 362.421H98.7423C99.3157 362.421 99.7805 361.957 99.7805 361.385V359.749C99.7805 359.176 99.3157 358.713 98.7423 358.713Z" fill="#4C30FF"/>
<path d="M110.06 387.818H75.8966C75.3232 387.818 74.8584 388.282 74.8584 388.854V390.49C74.8584 391.062 75.3232 391.526 75.8966 391.526H110.06C110.633 391.526 111.098 391.062 111.098 390.49V388.854C111.098 388.282 110.633 387.818 110.06 387.818Z" fill="#4C30FF"/>
<path d="M91.3206 397.747H75.8966C75.3232 397.747 74.8584 398.211 74.8584 398.783V400.419C74.8584 400.991 75.3232 401.455 75.8966 401.455H91.3206C91.894 401.455 92.3588 400.991 92.3588 400.419V398.783C92.3588 398.211 91.894 397.747 91.3206 397.747Z" fill="#4C30FF"/>
<path d="M77.5361 417.272H75.8966C75.3232 417.272 74.8584 417.736 74.8584 418.308V419.944C74.8584 420.516 75.3232 420.98 75.8966 420.98H77.5361C78.1095 420.98 78.5744 420.516 78.5744 419.944V418.308C78.5744 417.736 78.1095 417.272 77.5361 417.272Z" fill="#4C30FF"/>
<path d="M77.5361 446.813H75.8966C75.3232 446.813 74.8584 447.277 74.8584 447.849V449.485C74.8584 450.057 75.3232 450.521 75.8966 450.521H77.5361C78.1095 450.521 78.5744 450.057 78.5744 449.485V447.849C78.5744 447.277 78.1095 446.813 77.5361 446.813Z" fill="#4C30FF"/>
<path d="M77.5361 455.911H75.8966C75.3232 455.911 74.8584 456.375 74.8584 456.947V458.583C74.8584 459.156 75.3232 459.619 75.8966 459.619H77.5361C78.1095 459.619 78.5744 459.156 78.5744 458.583V456.947C78.5744 456.375 78.1095 455.911 77.5361 455.911Z" fill="#4C30FF"/>
<path d="M91.9379 446.813H83.0978C82.5244 446.813 82.0596 447.277 82.0596 447.849V449.485C82.0596 450.057 82.5244 450.521 83.0978 450.521H91.9379C92.5113 450.521 92.9761 450.057 92.9761 449.485V447.849C92.9761 447.277 92.5113 446.813 91.9379 446.813Z" fill="#4C30FF"/>
<path d="M87.6977 455.911H83.0978C82.5244 455.911 82.0596 456.375 82.0596 456.947V458.583C82.0596 459.156 82.5244 459.619 83.0978 459.619H87.6977C88.2711 459.619 88.736 459.156 88.736 458.583V456.947C88.736 456.375 88.2711 455.911 87.6977 455.911Z" fill="#4C30FF"/>
<path d="M95.4278 455.911H93.7882C93.2148 455.911 92.75 456.375 92.75 456.947V458.583C92.75 459.156 93.2148 459.619 93.7882 459.619H95.4278C96.0011 459.619 96.466 459.156 96.466 458.583V456.947C96.466 456.375 96.0011 455.911 95.4278 455.911Z" fill="#4C30FF"/>
<path d="M116.639 446.813H98.1622C97.5888 446.813 97.124 447.277 97.124 447.849V449.485C97.124 450.057 97.5888 450.521 98.1622 450.521H116.639C117.213 450.521 117.677 450.057 117.677 449.485V447.849C117.677 447.277 117.213 446.813 116.639 446.813Z" fill="#4C30FF"/>
<path d="M146.002 446.813H123.068C122.495 446.813 122.03 447.277 122.03 447.849V449.485C122.03 450.057 122.495 450.521 123.068 450.521H146.002C146.575 450.521 147.04 450.057 147.04 449.485V447.849C147.04 447.277 146.575 446.813 146.002 446.813Z" fill="#4C30FF"/>
<path d="M91.9425 426.893H75.8966C75.3232 426.893 74.8584 427.357 74.8584 427.929V429.565C74.8584 430.138 75.3232 430.601 75.8966 430.601H91.9425C92.5159 430.601 92.9807 430.138 92.9807 429.565V427.929C92.9807 427.357 92.5159 426.893 91.9425 426.893Z" fill="#4C30FF"/>
<path d="M102.541 417.272H83.4318C82.8584 417.272 82.3936 417.736 82.3936 418.308V419.944C82.3936 420.516 82.8584 420.98 83.4318 420.98H102.541C103.114 420.98 103.579 420.516 103.579 419.944V418.308C103.579 417.736 103.114 417.272 102.541 417.272Z" fill="#4C30FF"/>
<path d="M131.266 417.272H109.078C108.505 417.272 108.04 417.736 108.04 418.308V419.944C108.04 420.516 108.505 420.98 109.078 420.98H131.266C131.839 420.98 132.304 420.516 132.304 419.944V418.308C132.304 417.736 131.839 417.272 131.266 417.272Z" fill="#4C30FF"/>
<path d="M135.502 387.818H115.221C114.647 387.818 114.183 388.282 114.183 388.854V390.49C114.183 391.062 114.647 391.526 115.221 391.526H135.502C136.075 391.526 136.54 391.062 136.54 390.49V388.854C136.54 388.282 136.075 387.818 135.502 387.818Z" fill="#4C30FF"/>
<path d="M161.266 387.818H140.985C140.412 387.818 139.947 388.282 139.947 388.854V390.49C139.947 391.062 140.412 391.526 140.985 391.526H161.266C161.84 391.526 162.305 391.062 162.305 390.49V388.854C162.305 388.282 161.84 387.818 161.266 387.818Z" fill="#4C30FF"/>
<path d="M178.741 387.818H166.997C166.424 387.818 165.959 388.282 165.959 388.854V390.49C165.959 391.062 166.424 391.526 166.997 391.526H178.741C179.315 391.526 179.779 391.062 179.779 390.49V388.854C179.779 388.282 179.315 387.818 178.741 387.818Z" fill="#4C30FF"/>
<path d="M193.61 387.818H185.228C184.654 387.818 184.189 388.282 184.189 388.854V390.49C184.189 391.062 184.654 391.526 185.228 391.526H193.61C194.184 391.526 194.649 391.062 194.649 390.49V388.854C194.649 388.282 194.184 387.818 193.61 387.818Z" fill="#4C30FF"/>
<path d="M125.464 358.713H115.662C115.089 358.713 114.624 359.176 114.624 359.749V361.385C114.624 361.957 115.089 362.421 115.662 362.421H125.464C126.037 362.421 126.502 361.957 126.502 361.385V359.749C126.502 359.176 126.037 358.713 125.464 358.713Z" fill="#4C30FF"/>
<path d="M110.025 358.713H104.962C104.389 358.713 103.924 359.176 103.924 359.749V361.385C103.924 361.957 104.389 362.421 104.962 362.421H110.025C110.598 362.421 111.063 361.957 111.063 361.385V359.749C111.063 359.176 110.598 358.713 110.025 358.713Z" fill="#4C30FF"/>
<path d="M84.3616 368.601H75.8966C75.3232 368.601 74.8584 369.065 74.8584 369.637V371.273C74.8584 371.845 75.3232 372.309 75.8966 372.309H84.3616C84.935 372.309 85.3998 371.845 85.3998 371.273V369.637C85.3998 369.065 84.935 368.601 84.3616 368.601Z" fill="#4C30FF"/>
<path d="M102.546 368.601H90.5245C89.9512 368.601 89.4863 369.065 89.4863 369.637V371.273C89.4863 371.845 89.9512 372.309 90.5245 372.309H102.546C103.12 372.309 103.584 371.845 103.584 371.273V369.637C103.584 369.065 103.12 368.601 102.546 368.601Z" fill="#4C30FF"/>
<path d="M113.586 368.601H108.616C108.043 368.601 107.578 369.065 107.578 369.637V371.273C107.578 371.845 108.043 372.309 108.616 372.309H113.586C114.16 372.309 114.625 371.845 114.625 371.273V369.637C114.625 369.065 114.16 368.601 113.586 368.601Z" fill="#4C30FF"/>
<path d="M131.266 368.601H119.671C119.098 368.601 118.633 369.065 118.633 369.637V371.273C118.633 371.845 119.098 372.309 119.671 372.309H131.266C131.839 372.309 132.304 371.845 132.304 371.273V369.637C132.304 369.065 131.839 368.601 131.266 368.601Z" fill="#4C30FF"/>
<path d="M128.141 397.747H97.5704C96.997 397.747 96.5322 398.211 96.5322 398.783V400.419C96.5322 400.991 96.997 401.455 97.5704 401.455H128.141C128.714 401.455 129.179 400.991 129.179 400.419V398.783C129.179 398.211 128.714 397.747 128.141 397.747Z" fill="#4C30FF"/>
<path d="M141.936 407.507H76.4415C75.8681 407.507 75.4033 407.971 75.4033 408.543V410.179C75.4033 410.751 75.8681 411.215 76.4415 411.215H141.936C142.509 411.215 142.974 410.751 142.974 410.179V408.543C142.974 407.971 142.509 407.507 141.936 407.507Z" fill="#4C30FF"/>
<path d="M156.342 436.515H76.4415C75.8681 436.515 75.4033 436.978 75.4033 437.551V439.187C75.4033 439.759 75.8681 440.223 76.4415 440.223H156.342C156.916 440.223 157.38 439.759 157.38 439.187V437.551C157.38 436.978 156.916 436.515 156.342 436.515Z" fill="#4C30FF"/>
<path d="M168.318 397.747H133.343C132.77 397.747 132.305 398.211 132.305 398.783V400.419C132.305 400.991 132.77 401.455 133.343 401.455H168.318C168.891 401.455 169.356 400.991 169.356 400.419V398.783C169.356 398.211 168.891 397.747 168.318 397.747Z" fill="#4C30FF"/>
<path d="M183.151 397.747H174.542C173.969 397.747 173.504 398.211 173.504 398.783V400.419C173.504 400.991 173.969 401.455 174.542 401.455H183.151C183.724 401.455 184.189 400.991 184.189 400.419V398.783C184.189 398.211 183.724 397.747 183.151 397.747Z" fill="#4C30FF"/>
<path d="M204.537 397.747H188.764C188.19 397.747 187.726 398.211 187.726 398.783V400.419C187.726 400.991 188.19 401.455 188.764 401.455H204.537C205.111 401.455 205.576 400.991 205.576 400.419V398.783C205.576 398.211 205.111 397.747 204.537 397.747Z" fill="#4C30FF"/>
<path d="M240.36 397.747H211.126C210.553 397.747 210.088 398.211 210.088 398.783V400.419C210.088 400.991 210.553 401.455 211.126 401.455H240.36C240.934 401.455 241.399 400.991 241.399 400.419V398.783C241.399 398.211 240.934 397.747 240.36 397.747Z" fill="#4C30FF"/>
<path d="M113.586 426.893H98.1622C97.5888 426.893 97.124 427.357 97.124 427.929V429.565C97.124 430.138 97.5888 430.601 98.1622 430.601H113.586C114.16 430.601 114.624 430.138 114.624 429.565V427.929C114.624 427.357 114.16 426.893 113.586 426.893Z" fill="#4C30FF"/>
<path d="M160.377 426.893H120.052C119.478 426.893 119.014 427.357 119.014 427.929V429.565C119.014 430.138 119.478 430.601 120.052 430.601H160.377C160.951 430.601 161.416 430.138 161.416 429.565V427.929C161.416 427.357 160.951 426.893 160.377 426.893Z" fill="#4C30FF"/>
<path d="M197.141 426.893H167.172C166.599 426.893 166.134 427.357 166.134 427.929V429.565C166.134 430.138 166.599 430.601 167.172 430.601H197.141C197.715 430.601 198.179 430.138 198.179 429.565V427.929C198.179 427.357 197.715 426.893 197.141 426.893Z" fill="#4C30FF"/>
<path d="M225.81 426.893H203.602C203.028 426.893 202.563 427.357 202.563 427.929V429.565C202.563 430.138 203.028 430.601 203.602 430.601H225.81C226.383 430.601 226.848 430.138 226.848 429.565V427.929C226.848 427.357 226.383 426.893 225.81 426.893Z" fill="#4C30FF"/>
<path d="M149.173 368.601H137.578C137.005 368.601 136.54 369.065 136.54 369.637V371.273C136.54 371.845 137.005 372.309 137.578 372.309H149.173C149.747 372.309 150.211 371.845 150.211 371.273V369.637C150.211 369.065 149.747 368.601 149.173 368.601Z" fill="#4C30FF"/>
<path d="M182.416 368.601H156.296C155.723 368.601 155.258 369.065 155.258 369.637V371.273C155.258 371.845 155.723 372.309 156.296 372.309H182.416C182.989 372.309 183.454 371.845 183.454 371.273V369.637C183.454 369.065 182.989 368.601 182.416 368.601Z" fill="#4C30FF"/>
<path d="M131.266 338.967H119.671C119.098 338.967 118.633 339.431 118.633 340.003V341.639C118.633 342.212 119.098 342.675 119.671 342.675H131.266C131.839 342.675 132.304 342.212 132.304 341.639V340.003C132.304 339.431 131.839 338.967 131.266 338.967Z" fill="#4C30FF"/>
<path d="M160.234 338.967H137.578C137.005 338.967 136.54 339.431 136.54 340.003V341.639C136.54 342.212 137.005 342.675 137.578 342.675H160.234C160.807 342.675 161.272 342.212 161.272 341.639V340.003C161.272 339.431 160.807 338.967 160.234 338.967Z" fill="#4C30FF"/>
<path d="M243.994 338.967H167.069C166.496 338.967 166.031 339.431 166.031 340.003V341.639C166.031 342.212 166.496 342.675 167.069 342.675H243.994C244.568 342.675 245.033 342.212 245.033 341.639V340.003C245.033 339.431 244.568 338.967 243.994 338.967Z" fill="#4C30FF"/>
<path d="M124.282 328.982H104.962C104.389 328.982 103.924 329.446 103.924 330.018V331.654C103.924 332.226 104.389 332.69 104.962 332.69H124.282C124.855 332.69 125.32 332.226 125.32 331.654V330.018C125.32 329.446 124.855 328.982 124.282 328.982Z" fill="#4C30FF"/>
<path d="M153.105 309.334H126.985C126.412 309.334 125.947 309.798 125.947 310.37V312.006C125.947 312.578 126.412 313.042 126.985 313.042H153.105C153.678 313.042 154.143 312.578 154.143 312.006V310.37C154.143 309.798 153.678 309.334 153.105 309.334Z" fill="#4C30FF"/>
<path d="M54.2027 256.042L53 257.011L58.5307 263.844L59.7333 262.875L54.2027 256.042Z" fill="#9079A7"/>
</g>
<defs>
<filter id="filter0_f_434_4048" x="-14" y="-32" width="632" height="609" filterUnits="userSpaceOnUse" color-interpolation-filters="sRGB">
<feFlood flood-opacity="0" result="BackgroundImageFix"/>
<feBlend mode="normal" in="SourceGraphic" in2="BackgroundImageFix" result="shape"/>
<feGaussianBlur stdDeviation="75" result="effect1_foregroundBlur_434_4048"/>
</filter>
<clipPath id="clip0_434_4048">
<rect width="489" height="398" fill="white" transform="translate(53 75)"/>
</clipPath>
</defs>
</svg>
